<svg width="210" height="70" viewBox="0 0 210 70" fill="none" xmlns="http://www.w3.org/2000/svg">
<path d="M91.7832 53.7656C93.5597 53.7656 94.9722 54.2217 96.0654 55.1338C97.1585 56.0002 97.7051 57.186 97.7051 58.5996H94.5615C94.5615 57.87 94.2885 57.2773 93.833 56.8213C93.3775 56.3653 92.6942 56.1367 91.7832 56.1367C90.9178 56.1367 90.2797 56.3198 89.8242 56.6846C89.369 57.0494 89.1416 57.5509 89.1416 58.1436C89.1416 58.6907 89.3692 59.1466 89.8701 59.4658C90.3712 59.8306 91.2369 60.1501 92.4668 60.5605C94.2432 61.0622 95.5643 61.7004 96.4297 62.4756C97.2951 63.2508 97.7499 64.2997 97.75 65.6221C97.75 67.0357 97.2497 68.0851 96.2021 68.8604C95.1545 69.6356 93.7422 70 91.9658 70C90.2349 70 88.7315 69.5442 87.4561 68.6777C86.1806 67.8113 85.543 66.5343 85.543 64.8926H88.6855C88.6855 65.8502 89.0051 66.5798 89.5518 66.9902C90.0984 67.4006 90.9183 67.6289 91.9658 67.6289C92.8765 67.6289 93.5143 67.4467 93.9697 67.082C94.4252 66.7172 94.6077 66.2608 94.5166 65.668C94.5166 65.0753 94.2887 64.5738 93.8789 64.209C93.469 63.8442 92.6945 63.4793 91.6016 63.1602C89.6884 62.6129 88.2759 61.9738 87.3193 61.2441C86.363 60.5146 85.9073 59.5117 85.9072 58.1895C85.9072 56.8671 86.4538 55.8179 87.5469 54.9971C88.64 54.1763 90.0524 53.7657 91.7832 53.7656ZM151.728 53.7656C153.504 53.7656 154.917 54.2217 156.01 55.1338C157.103 56.0002 157.649 57.186 157.649 58.5996H154.506C154.506 57.87 154.233 57.2773 153.777 56.8213C153.322 56.3653 152.639 56.1367 151.728 56.1367C150.862 56.1367 150.225 56.3198 149.77 56.6846C149.314 57.0494 149.086 57.5507 149.086 58.1436C149.086 58.6907 149.314 59.1466 149.814 59.4658C150.316 59.8306 151.181 60.1501 152.411 60.5605C154.188 61.0622 155.509 61.7004 156.374 62.4756C157.239 63.2508 157.695 64.2997 157.695 65.6221C157.695 67.0357 157.194 68.0851 156.146 68.8604C155.099 69.6356 153.687 70 151.91 70C150.179 70 148.676 69.5442 147.4 68.6777C146.125 67.8113 145.487 66.5343 145.487 64.8926H148.63C148.63 65.8502 148.949 66.5798 149.496 66.9902C150.043 67.4006 150.863 67.6289 151.91 67.6289C152.821 67.6289 153.459 67.4467 153.914 67.082C154.324 66.7172 154.552 66.2608 154.461 65.668C154.461 65.0753 154.233 64.5738 153.823 64.209C153.413 63.8442 152.639 63.4793 151.546 63.1602C149.633 62.6129 148.22 61.9738 147.264 61.2441C146.307 60.5146 145.852 59.5116 145.852 58.1895C145.852 56.8671 146.398 55.8179 147.491 54.9971C148.584 54.1763 149.997 53.7657 151.728 53.7656ZM125.582 69.7725H122.394L121.3 66.3066H115.788L114.695 69.7725H111.507L116.927 53.9932H120.161L125.582 69.7725ZM143.073 69.7725H139.93V53.9932H143.073V69.7725ZM177.691 69.7725H174.549V53.9932H177.691V69.7725ZM184.023 60.4238H185.39L189.58 53.9932H193.452L188.259 61.3809L193.862 69.7725H189.99L185.754 63.2051H184.023V69.7725H180.88V53.9932H184.023V60.4238ZM209.03 69.7725H205.842L204.748 66.3066H199.237L198.144 69.7725H194.955L200.376 53.9932H203.609L209.03 69.7725ZM112.418 56.4102H107.453V69.7266H104.31V56.4102H99.3447V53.9932H112.418V56.4102ZM137.744 56.4102H132.778V69.7266H129.636V56.4102H124.671V53.9932H137.744V56.4102ZM172.362 56.4102H167.397V69.7266H164.254V56.4102H159.289V53.9932H172.362V56.4102ZM2.00391 65.668C3.11081 65.668 4.00879 66.5666 4.00879 67.6748C4.00862 68.7828 3.1107 69.6807 2.00391 69.6807C0.897257 69.6805 0.000172942 68.7827 0 67.6748C0 66.5667 0.89715 65.6681 2.00391 65.668ZM34.8008 65.668C35.9077 65.668 36.8057 66.5666 36.8057 67.6748C36.8055 68.7828 35.9076 69.6807 34.8008 69.6807C33.6941 69.6805 32.797 68.7827 32.7969 67.6748C32.7969 66.5667 33.694 65.6681 34.8008 65.668ZM67.6426 65.668C68.7495 65.668 69.6475 66.5666 69.6475 67.6748C69.6473 68.7828 68.7494 69.6807 67.6426 69.6807C66.5359 69.6805 65.6388 68.7827 65.6387 67.6748C65.6387 66.5667 66.5358 65.6681 67.6426 65.668ZM116.518 63.8896H120.525L118.521 57.5049L116.518 63.8896ZM199.966 63.8896H203.974L201.97 57.5049L199.966 63.8896ZM117.61 32.6514C119.387 32.6514 120.799 33.1075 121.893 34.0195C122.986 34.886 123.532 36.0717 123.532 37.4854H120.39C120.39 36.7557 120.116 36.1631 119.66 35.707C119.205 35.251 118.521 35.0225 117.61 35.0225C116.745 35.0225 116.108 35.2056 115.652 35.5703C115.197 35.9351 114.969 36.4365 114.969 37.0293C114.969 37.5764 115.196 38.0324 115.697 38.3516C116.198 38.7164 117.064 39.0359 118.294 39.4463C120.07 39.9479 121.391 40.5861 122.257 41.3613C123.122 42.1365 123.578 43.1855 123.578 44.5078C123.578 45.9215 123.077 46.9708 122.029 47.7461C120.982 48.5213 119.569 48.8857 117.793 48.8857C116.062 48.8857 114.559 48.4299 113.283 47.5635C112.008 46.697 111.37 45.4199 111.37 43.7783H114.514C114.514 44.736 114.832 45.4655 115.379 45.876C115.926 46.2864 116.745 46.5146 117.793 46.5146C118.704 46.5146 119.341 46.3324 119.797 45.9678C120.252 45.603 120.48 45.1465 120.344 44.5537C120.344 43.9609 120.116 43.4595 119.706 43.0947C119.296 42.7299 118.522 42.3651 117.429 42.0459C115.516 41.4987 114.103 40.8595 113.146 40.1299C112.19 39.4003 111.734 38.3973 111.734 37.0752C111.734 35.7527 112.282 34.7037 113.375 33.8828C114.468 33.0621 115.88 32.6514 117.61 32.6514ZM96.9766 35.2959H89.3691V39.2637H95.9287V41.7266H89.415V46.2412H97.0225V48.6582H86.2266V32.8789H96.9766V35.2959ZM109.913 35.2959H102.306V39.2637H108.865V41.7266H102.352V46.2412H109.958V48.6582H99.1631V32.8789H109.913V35.2959ZM143.62 48.6582H140.478V32.8789H143.62V48.6582ZM138.245 35.2959H133.28V48.6123H130.137V35.2959H125.172V32.8789H138.245V35.2959ZM2.00391 32.834C3.11081 32.834 4.00879 33.7327 4.00879 34.8408C4.00862 35.9488 3.1107 36.8467 2.00391 36.8467C0.897257 36.8465 0.00017294 35.9487 0 34.8408C0 33.7328 0.89715 32.8342 2.00391 32.834ZM34.8008 32.834C35.9077 32.834 36.8057 33.7327 36.8057 34.8408C36.8055 35.9488 35.9076 36.8467 34.8008 36.8467C33.6941 36.8465 32.797 35.9487 32.7969 34.8408C32.7969 33.7328 33.694 32.8342 34.8008 32.834ZM67.6426 32.834C68.7495 32.834 69.6475 33.7327 69.6475 34.8408C69.6473 35.9488 68.7494 36.8467 67.6426 36.8467C66.5359 36.8465 65.6388 35.9487 65.6387 34.8408C65.6387 33.7328 66.5358 32.8342 67.6426 32.834ZM2.00391 0C3.11081 0 4.00879 0.898666 4.00879 2.00684C4.00862 3.11486 3.1107 4.0127 2.00391 4.0127C0.897255 4.01253 0.000170496 3.11476 0 2.00684C0 0.89877 0.89715 0.000168325 2.00391 0ZM34.8008 0C35.9077 0 36.8057 0.898666 36.8057 2.00684C36.8055 3.11486 35.9076 4.0127 34.8008 4.0127C33.6941 4.01253 32.797 3.11476 32.7969 2.00684C32.7969 0.89877 33.694 0.000169228 34.8008 0ZM67.6426 0C68.7495 0 69.6475 0.898666 69.6475 2.00684C69.6473 3.11486 68.7494 4.0127 67.6426 4.0127C66.5359 4.01253 65.6388 3.11476 65.6387 2.00684C65.6387 0.89877 66.5358 0.000169227 67.6426 0Z" fill="black"/>
</svg>
